<?xml version="1.0" encoding="utf-8"?>
<!-- Generator: Adobe Illustrator 15.0.0, SVG Export Plug-In . SVG Version: 6.00 Build 0)  -->
<!DOCTYPE svg PUBLIC "-//W3C//DTD SVG 1.1//EN" "http://www.w3.org/Graphics/SVG/1.1/DTD/svg11.dtd">
<svg version="1.1" id="Слой_1" xmlns="http://www.w3.org/2000/svg" xmlns:xlink="http://www.w3.org/1999/xlink" x="0px" y="0px"
	 width="477px" height="96px" viewBox="0 0 477 96" enable-background="new 0 0 477 96" xml:space="preserve">
<g>
	<g>
		<path fill="#333333" d="M108.875,5.2l-10.97,18.64h-66.76c0.44-0.65,0.89-1.28,1.37-1.92c3.93-5.17,8.76-9.25,14.49-12.24
			c5.74-2.99,11.69-4.48,17.86-4.48C65.855,5.2,108.875,5.2,108.875,5.2z"/>
		<path fill="#333333" d="M95.105,28.6l-10.97,18.65h-66.76c0.44-0.65,0.89-1.29,1.37-1.92c3.93-5.17,8.76-9.25,14.5-12.24
			c5.72-2.99,11.68-4.49,17.85-4.49C52.085,28.6,95.105,28.6,95.105,28.6z"/>
		<path fill="#333333" d="M81.326,52.02l-10.97,18.64H3.596c0.44-0.649,0.89-1.29,1.36-1.92c3.93-5.17,8.77-9.25,14.5-12.24
			c5.73-2.989,11.68-4.479,17.85-4.479C38.296,52.02,81.326,52.02,81.326,52.02z"/>
	</g>
	<g>
		<path fill="#333333" d="M397.065,19.8c0,0,0.23,1.48-0.17,3.66c-0.209,1.13-0.27,1.5-0.449,2.45h-15.439
			c0,0,0.299-1.27-0.121-2.76c-0.08-0.33-0.199-0.63-0.33-0.91c-0.92-1.93-3.219-3.91-8.85-4h-0.01c-0.18-0.01-0.33-0.01-0.449-0.01
			c-0.271,0-0.541,0.01-0.811,0.01c-0.09,0.01-9.361,0.49-10.611,6.08c-1.059,4.74,12.371,7.19,12.371,7.19s17.359,2.9,21.5,12.51
			c0.879,1.79,1.17,3.82,0.76,6.13c-0.029,0.17-0.209,0.86-0.27,1.04c-1.51,5.71-4.76,9.99-10.6,14.03
			c-6.211,4.29-13.281,6.54-20.551,6.949c-1.221,0.07-2.131,0.07-4.15-0.04c-4.25-0.159-8.01-1.22-11.15-2.729
			c-2.17-1.04-5.629-3.29-8.398-6.66c-1.701-2.06-3.182-4.42-4.291-7.64c-0.5-1.431-0.949-2.78-1.279-5.16
			c-0.24-1.59-0.371-3.24-0.381-4.97h15.461c0.26,1.82,0.77,3.48,1.549,4.98h-0.01c2.061,3.84,4.961,5.7,7.131,6.61
			c1.26,0.53,2.65,0.939,4.41,1.16c1.299,0.149,2.439,0.17,3.35,0.14c0.51-0.03,10.789-0.85,10.65-7.06
			c-0.15-7-18.57-4.891-28.971-13.831c-9.08-7.8-5.779-15.96,0.23-22.13h-0.07c0.84-0.88,1.779-1.73,2.789-2.55
			c0.012,0,0.012,0,0.021,0c0.398-0.35,0.77-0.62,1.1-0.84c0.25-0.19,0.51-0.37,0.779-0.55c2.891-2,5.98-3.56,9.191-4.69
			c3.209-1.13,6.539-1.83,9.92-2.14c0.43-0.03,0.859-0.1,1.289-0.13v0.01c0.26,0,0.51-0.02,0.76-0.02c3.951,0,8.23,0.64,11.471,1.98
			c3.25,1.34,5.93,3.03,8.18,5.25C394.815,13.35,396.596,15.99,397.065,19.8z"/>
		<path fill="#333333" d="M328.846,31.44c0,2.15-0.24,4.63-0.75,7.44c-0.46,2.34-1.03,4.37-1.72,6.06h-8.811h-42.59
			c0.51,3.33,1.9,6.14,4.2,8.439c2.93,2.94,6.77,4.421,11.5,4.421c0.58,0,1.17-0.03,1.74-0.08v0.04l3.029,13.949
			c-2.04,0.33-4.13,0.511-6.279,0.511c-8.801,0-15.971-2.61-21.48-7.82c-5.52-5.21-8.27-11.87-8.27-19.98
			c0-1.77,0.189-3.85,0.569-6.24c1.16-6.3,3.74-12.09,7.761-17.39c4.02-5.27,8.96-9.45,14.819-12.51
			c5.86-3.05,11.95-4.58,18.25-4.58c8.46,0,15.25,2.55,20.36,7.67C326.296,16.48,328.846,23.17,328.846,31.44z M277.516,31.09h35.8
			c-0.47-3.43-1.859-6.31-4.189-8.62c-2.92-2.9-6.78-4.36-11.59-4.36c-5.311,0-10.101,1.92-14.391,5.75
			C280.766,25.97,278.905,28.39,277.516,31.09z"/>
		<path fill="#333333" d="M254.806,31.44c0,2.15-0.25,4.63-0.75,7.44c-0.46,2.34-1.04,4.37-1.73,6.06h-8.81h-42.59
			c0.51,3.33,1.9,6.14,4.2,8.439c2.93,2.94,6.77,4.421,11.5,4.421c0.59,0,1.16-0.03,1.74-0.08l0.01,0.04l3.02,13.949
			c-2.04,0.33-4.13,0.511-6.27,0.511c-8.81,0-15.97-2.61-21.49-7.82c-5.51-5.21-8.27-11.87-8.27-19.98c0-1.77,0.19-3.85,0.58-6.24
			c1.14-6.3,3.73-12.09,7.75-17.39c4.02-5.27,8.96-9.45,14.82-12.51c5.87-3.05,11.95-4.58,18.26-4.58c8.45,0,15.24,2.55,20.36,7.67
			C252.246,16.48,254.806,23.17,254.806,31.44z M203.476,31.09h35.79c-0.47-3.43-1.85-6.31-4.19-8.62
			c-2.91-2.9-6.78-4.36-11.58-4.36c-5.32,0-10.11,1.92-14.39,5.75C206.726,25.97,204.866,28.39,203.476,31.09z"/>
		<polygon fill="#333333" points="191.565,5.2 153.036,70.66 140.526,70.66 126.335,5.2 143.806,5.2 151.855,42.39 173.806,5.2 		
			"/>
		<path fill="#333333" d="M473.395,30.88c-0.08-8.11-2.619-14.7-7.66-19.73c-5.119-5.11-11.91-7.67-20.359-7.67
			c-6.311,0-12.391,1.53-18.25,4.59l0.051-0.24l0.41-2.26l0.068-0.37h-15.669l-16.199,87.32h15.67l4.561-24.57
			c4.41,2.771,9.73,4.17,15.958,4.17c6.311,0,12.391-1.529,18.26-4.58c5.861-3.06,10.811-7.229,14.82-12.52
			c2.461-3.24,4.381-6.68,5.77-10.3c0.691-1.69,1.361-3.71,1.82-6.05c0.51-2.81,0.76-5.29,0.76-7.44
			C473.404,31.11,473.395,31,473.395,30.88z M457.75,37.5c-0.148,0.78-0.328,1.54-0.539,2.28c-0.051,0.19-0.109,0.37-0.17,0.56
			c-0.199,0.69-0.43,1.37-0.689,2.03c-0.021,0.05-0.041,0.1-0.051,0.14c0,0.01,0,0.01-0.01,0.01c-0.305,0.757-0.629,1.486-1.006,2.2
			l0,0c-0.098,0.188-0.215,0.365-0.316,0.55c-0.08,0.142-0.162,0.282-0.244,0.422c-1.328,2.309-2.992,4.418-5.08,6.268
			c-4.109,3.67-8.68,5.57-13.729,5.71c-0.031,0.011-0.061,0.011-0.092,0.011c-0.02,0-0.059,0-0.09,0
			c-0.148,0-0.309,0.029-0.479,0.029c-0.021,0-0.061,0-0.09,0c-0.041,0-0.08,0-0.08,0c-3.381,0-6.301-0.779-8.762-2.3
			c-0.1-0.06-0.209-0.1-0.318-0.18c-0.17-0.12-0.352-0.26-0.531-0.38c-0.24-0.181-0.479-0.34-0.699-0.51
			c-0.16-0.12-0.291-0.261-0.41-0.37c-0.24-0.2-0.471-0.4-0.699-0.63c-0.012-0.011-0.012-0.021-0.021-0.021
			c-0.01-0.01-0.02-0.02-0.039-0.03c-0.09-0.1-0.17-0.189-0.26-0.29c-0.191-0.199-0.391-0.42-0.57-0.63
			c-0.23-0.26-0.43-0.54-0.631-0.81c-0.02-0.03-0.039-0.05-0.07-0.07c-0.25-0.35-0.478-0.71-0.699-1.08
			c-0.029-0.05-0.061-0.109-0.09-0.16c-0.189-0.33-0.369-0.659-0.539-1c-0.012-0.02-0.021-0.06-0.031-0.08
			c-0.18-0.38-0.34-0.77-0.49-1.16c-0.34-0.91-0.59-1.86-0.77-2.86c-0.01-0.04-0.01-0.09-0.02-0.14c-0.16-0.97-0.25-1.98-0.25-3.05
			c0-1.23,0.119-2.52,0.35-3.85c0.15-0.78,0.33-1.54,0.539-2.28c0.051-0.19,0.111-0.37,0.172-0.56c0.199-0.69,0.43-1.37,0.689-2.03
			c0.02-0.05,0.039-0.1,0.049-0.14c0-0.01,0-0.01,0.012-0.01c0.818-2.04,1.898-3.92,3.228-5.66c0.031-0.03,0.051-0.07,0.07-0.09
			c0.41-0.54,0.84-1.07,1.301-1.57c0.66-0.74,1.35-1.46,2.1-2.13c4.279-3.82,9.08-5.74,14.391-5.74c4.799,0,8.67,1.45,11.58,4.36
			c1.836,1.799,3.072,3.969,3.752,6.462c0.082,0.284,0.152,0.574,0.219,0.866c0.004,0.019,0.01,0.037,0.014,0.055
			c0.061,0.271,0.131,0.537,0.18,0.816c0.012,0.04,0.012,0.09,0.021,0.14c0.16,0.97,0.25,1.98,0.25,3.05
			C458.102,34.879,457.98,36.169,457.75,37.5z"/>
	</g>
</g>
</svg>
